<?xml version="1.0" encoding="utf-8"?>
<!-- Generator: Adobe Illustrator 16.0.0, SVG Export Plug-In . SVG Version: 6.00 Build 0)  -->
<!DOCTYPE svg PUBLIC "-//W3C//DTD SVG 1.1//EN" "http://www.w3.org/Graphics/SVG/1.1/DTD/svg11.dtd">
<svg version="1.1" id="Layer_1" xmlns="http://www.w3.org/2000/svg" xmlns:xlink="http://www.w3.org/1999/xlink" x="0px" y="0px"
	 width="592.033px" height="122.186px" viewBox="0 0 592.033 122.186" enable-background="new 0 0 592.033 122.186"
	 xml:space="preserve">
<g id="logo_x5F_color">
	<path fill="#4285F4" d="M0.476,410.469c0-19.727,16.53-35.713,36.257-35.713c10.884,0,18.639,4.286,24.489,9.864l-6.938,6.87
		c-4.149-3.945-9.795-7.006-17.55-7.006c-14.353,0-25.577,11.563-25.577,25.917c0,14.353,11.224,25.917,25.577,25.917
		c9.319,0,14.625-3.741,18.026-7.145c2.789-2.789,4.626-6.802,5.306-12.244H36.733v-9.727h32.856
		c0.34,1.769,0.544,3.809,0.544,6.122c0,7.347-1.973,16.394-8.435,22.788c-6.326,6.528-14.353,10-24.965,10
		C17.006,446.114,0.476,430.128,0.476,410.469z"/>
	<path fill="#EA4335" d="M96.594,400.198c-12.721,0-23.06,9.659-23.06,22.992c0,13.265,10.34,22.99,23.06,22.99
		c12.72,0,23.06-9.727,23.06-22.99C119.654,409.857,109.314,400.198,96.594,400.198z M96.594,437.067
		c-6.938,0-12.993-5.716-12.993-13.945c0-8.299,5.986-13.945,12.993-13.945c6.938,0,12.993,5.646,12.993,13.945
		C109.587,431.352,103.532,437.067,96.594,437.067z"/>
	<path fill="#FBBC05" d="M146.932,400.198c-12.721,0-23.06,9.659-23.06,22.992c0,13.265,10.34,22.99,23.06,22.99
		c12.721,0,23.06-9.727,23.06-22.99C169.992,409.857,159.652,400.198,146.932,400.198z M146.932,437.067
		c-6.938,0-12.993-5.716-12.993-13.945c0-8.299,5.986-13.945,12.993-13.945c7.007,0,12.993,5.646,12.993,13.945
		C159.924,431.352,153.87,437.067,146.932,437.067z"/>
	<path fill="#4285F4" d="M208.698,401.557v3.741h-0.34c-2.245-2.721-6.598-5.17-12.108-5.17c-11.496,0-22.04,10.068-22.04,23.062
		c0,12.855,10.544,22.924,22.04,22.924c5.51,0,9.864-2.449,12.108-5.238h0.34v3.333c0,8.775-4.694,13.469-12.244,13.469
		c-6.19,0-10-4.422-11.564-8.163l-8.775,3.675c2.517,6.12,9.251,13.604,20.407,13.604c11.836,0,21.836-6.938,21.836-23.945v-41.291
		C218.357,401.557,208.698,401.557,208.698,401.557z M197.134,437.067c-6.938,0-12.789-5.852-12.789-13.877
		c0-8.097,5.85-14.015,12.789-14.015c6.87,0,12.244,5.918,12.244,14.015C209.446,431.285,204.004,437.067,197.134,437.067z"/>
	<polygon fill="#34A853" points="235.363,444.753 225.296,444.753 225.296,377.205 235.363,377.205 	"/>
	<path fill="#EA4335" d="M263.049,437.067c-5.17,0-8.775-2.383-11.156-6.938l30.747-12.721l-1.02-2.585
		c-1.905-5.17-7.755-14.625-19.659-14.625c-11.836,0-21.7,9.317-21.7,22.992c0,12.855,9.727,22.99,22.788,22.99
		c10.544,0,16.598-6.462,19.183-10.204l-7.823-5.236C271.756,434.55,268.219,437.067,263.049,437.067z M262.301,409.041
		c4.013,0,7.415,1.973,8.503,4.898l-20.543,8.503C249.989,413.597,257.131,409.041,262.301,409.041z"/>
</g>
<g id="content">
	<path fill="#757575" d="M334.407,446.114c-9.184,0-16.869-3.129-23.061-9.319c-6.189-6.188-9.318-13.945-9.318-23.264
		c0-9.319,3.129-17.006,9.318-23.266c6.19-6.188,13.877-9.317,23.061-9.317c9.387,0,17.006,3.399,22.924,10.204l-5.578,5.374
		c-4.217-5.308-10-7.893-17.346-7.893c-6.803,0-12.516,2.313-17.209,6.87c-4.695,4.559-7.008,10.612-7.008,18.026
		c0,7.415,2.313,13.469,7.008,18.024c4.693,4.56,10.406,6.87,17.209,6.87c7.482,0,13.877-2.993,19.184-9.047l5.578,5.578
		c-2.857,3.401-6.395,6.122-10.68,8.163C344.135,445.162,339.508,446.114,334.407,446.114z"/>
	<path fill="#757575" d="M378.963,446.114c-4.56,0-8.299-1.292-11.36-3.945c-3.062-2.585-4.558-6.054-4.558-10.34
		c0-4.626,1.769-8.299,5.373-10.952s8.026-3.945,13.334-3.945c4.692,0,8.57,0.886,11.563,2.585v-1.224
		c0-3.129-1.088-5.646-3.196-7.551c-2.179-1.905-4.763-2.857-7.892-2.857c-2.313,0-4.422,0.544-6.326,1.633
		c-1.905,1.09-3.196,2.585-3.877,4.56l-7.348-3.129c1.02-2.585,2.926-4.898,5.85-7.075c2.927-2.177,6.734-3.265,11.496-3.265
		c5.441,0,10,1.563,13.605,4.762s5.373,7.687,5.373,13.469v25.917h-7.688v-5.918h-0.34
		C389.778,443.733,385.084,446.114,378.963,446.114z M380.254,438.835c3.334,0,6.326-1.224,8.979-3.673
		c2.722-2.449,4.08-5.374,4.08-8.775c-2.244-1.837-5.646-2.789-10.203-2.789c-3.877,0-6.803,0.816-8.774,2.519
		c-1.974,1.701-2.994,3.673-2.994,5.918c0,2.107,0.886,3.741,2.722,4.966C375.834,438.222,377.942,438.835,380.254,438.835z"/>
	<path fill="#757575" d="M418.008,444.754h-8.024v-42.651h7.686v6.938h0.34c0.816-2.313,2.449-4.217,5.035-5.714
		c2.516-1.497,4.965-2.245,7.346-2.245c2.384,0,4.355,0.34,5.986,1.02l-3.061,7.483c-1.021-0.408-2.449-0.612-4.285-0.612
		c-2.924,0-5.441,1.156-7.688,3.471c-2.244,2.313-3.332,5.306-3.332,8.979v23.333L418.008,444.754L418.008,444.754z"/>
	<path fill="#757575" d="M458.346,446.114c-6.461,0-11.699-2.177-15.713-6.462c-4.014-4.286-6.055-9.729-6.055-16.26
		c0-6.188,1.973-11.563,5.85-16.054c3.945-4.49,8.912-6.732,15.033-6.732c6.326,0,11.361,2.04,15.17,6.188
		c3.81,4.149,5.713,9.659,5.713,16.53l-0.065,1.497h-33.672c0.202,4.286,1.698,7.687,4.284,10.204
		c2.652,2.517,5.716,3.739,9.25,3.739c5.716,0,9.66-2.447,11.701-7.347l7.144,2.993c-1.359,3.333-3.673,6.054-6.869,8.299
		C466.918,445.026,462.973,446.114,458.346,446.114z M469.842,418.292c-0.203-2.449-1.291-4.762-3.332-6.938
		c-2.041-2.176-5.102-3.331-9.184-3.331c-2.992,0-5.51,0.95-7.688,2.787c-2.176,1.839-3.672,4.354-4.487,7.483
		C445.151,418.292,469.842,418.292,469.842,418.292z"/>
	<path fill="#757575" d="M505.42,446.114c-6.463,0-11.701-2.177-15.715-6.462c-4.012-4.286-6.053-9.729-6.053-16.26
		c0-6.188,1.973-11.563,5.85-16.054c3.945-4.49,8.91-6.732,15.033-6.732c6.326,0,11.358,2.04,15.168,6.188
		c3.809,4.149,5.715,9.659,5.715,16.53l-0.068,1.497h-33.672c0.203,4.286,1.701,7.687,4.285,10.204
		c2.652,2.517,5.713,3.739,9.25,3.739c5.715,0,9.66-2.447,11.701-7.347l7.143,2.993c-1.358,3.333-3.674,6.054-6.868,8.299
		C513.991,445.026,510.114,446.114,505.42,446.114z M516.917,418.292c-0.205-2.449-1.293-4.762-3.334-6.938
		c-2.041-2.176-5.102-3.331-9.182-3.331c-2.994,0-5.513,0.95-7.688,2.787c-2.178,1.839-3.674,4.354-4.49,7.483
		C492.223,418.292,516.917,418.292,516.917,418.292z"/>
	<path fill="#757575" d="M540.793,444.754h-8.027v-42.651h7.688v6.938h0.34c0.816-2.313,2.449-4.217,5.033-5.714
		c2.518-1.497,4.967-2.245,7.348-2.245c2.382,0,4.354,0.34,5.986,1.02l-3.061,7.483c-1.021-0.408-2.449-0.612-4.287-0.612
		c-2.927,0-5.441,1.156-7.688,3.471c-2.244,2.313-3.332,5.306-3.332,8.979V444.754L540.793,444.754z"/>
	<path fill="#757575" d="M578.479,446.114c-4.764,0-8.706-1.156-11.77-3.471c-3.129-2.313-5.373-5.236-6.801-8.705l7.143-2.993
		c2.244,5.374,6.121,8.025,11.564,8.025c2.516,0,4.557-0.544,6.121-1.633c1.563-1.088,2.381-2.585,2.381-4.354
		c0-2.789-1.974-4.694-5.851-5.646l-8.639-2.107c-2.721-0.682-5.307-2.041-7.756-3.945c-2.449-1.973-3.672-4.56-3.672-7.893
		c0-3.739,1.701-6.802,5.033-9.183c3.334-2.381,7.278-3.537,11.903-3.537c3.74,0,7.144,0.884,10.068,2.585
		c2.992,1.701,5.102,4.149,6.326,7.349l-6.871,2.855c-1.564-3.741-4.83-5.646-9.728-5.646c-2.381,0-4.354,0.476-5.985,1.496
		c-1.633,1.021-2.449,2.313-2.449,4.014c0,2.449,1.906,4.081,5.646,4.966l8.436,1.973c4.012,0.952,6.938,2.519,8.91,4.764
		c1.906,2.245,2.856,4.83,2.856,7.687c0,3.811-1.563,7.007-4.692,9.591C587.458,444.889,583.444,446.114,578.479,446.114z"/>
</g>
<g>
	<polygon fill="#FFFFFF" points="61.709,29.598 61.709,0 32.114,0 32.114,29.598 2.514,29.598 2.514,59.196 32.114,59.196 
		32.114,88.788 61.709,88.788 61.709,59.196 91.301,59.196 91.301,29.598 	"/>
	<path fill="none" d="M185.351,13.756h-26.232c4.126,13.591,12.635,20.479,25.3,20.479c2.788,0,5.622-1.009,8.422-2.997
		c3.168-2.16,4.77-4.521,4.77-7.011C197.61,17.181,193.599,13.756,185.351,13.756z"/>
	<path fill="none" d="M167.251,68.276c3.024,0,5.655,0.313,7.821,0.93c5.313,1.546,9.701,3.438,13.059,5.62V53.594
		c-5.71,2.289-14.415,7.307-25.906,14.93C164.015,68.358,165.7,68.276,167.251,68.276z"/>
	<path fill="none" d="M539.073,23.336c4.451,3.304,9.631,8.876,15.535,16.723c-4.144,2.271-9.166,5.214-15.068,8.824l-15.224,9.289
		c19.675,0,35.624,5.854,47.846,17.555V11.723h-51.419C523.846,12.757,529.958,16.626,539.073,23.336z"/>
	<path fill="#273748" d="M347.39,0.524h-7.176h-90.538h-7.019h-11.395l-8.116,0.212v12.907L214.88,1.94l-1.013-1.417h-6.319h-97.402
		v13.231h37.708c-0.82,9.184-3.899,15.499-9.166,18.813c-13.89,5.405-18.079-13.022-18.079-13.022s-3.784,3.953-3.784,8.942
		c0,4.667,1.399,8.724,4.477,12.063c3.084,3.353,7.018,5.051,11.693,5.051c11.129,0,18.49-7.521,21.897-22.354
		c5.089,11.786,11.556,19.477,19.294,23.023c-3.823,2.242-7.844,4.567-12.067,6.977c-15.74,8.872-23.392,15.87-23.392,21.391
		c0,4.957,3.507,7.472,10.423,7.472c1.174,0,2.304-0.108,3.356-0.321c7.079-1.437,13.232-2.466,18.217-1.854
		c9.972,1.223,14.611,7.477,17.405,16.098h9.013c0.033-5.047,0.181-10.729,0.181-18.814V44.31c1.137-0.929,2.192-2.01,3.161-3.238
		c3.573-4.52,5.385-10.213,5.385-16.92c0-2.99-0.787-6.484-2.34-10.396h4.02v0.001l0.712-0.001h3.564l11.322,16.767v65.512h11.931
		V13.756h7.579h7.019h30.689c-0.82,9.184-3.9,15.499-9.166,18.813c-13.571,5.166-18.079-13.022-18.079-13.022
		s-3.679,5.522-3.784,8.942c-0.106,4.666,1.399,8.724,4.477,12.063c3.084,3.353,7.018,5.051,11.693,5.051
		c11.129,0,18.491-7.521,21.897-22.354c4.339,10.047,9.682,17.106,15.957,21.176c-3.637,0.734-6.92,1.857-9.803,3.38
		c-7.075,3.697-10.716,9.433-10.822,17.034c-0.104,4.27,1.253,7.762,4.035,10.384c2.772,2.611,6.333,3.936,10.581,3.936
		c3.602,0,6.877-0.969,9.736-2.873c3.343-2.153,5.036-5.061,5.036-8.637c0-3.293-0.856-6.393-2.556-9.223
		c3.469-1.189,6.828-1.793,9.998-1.793c12.117,0,18.006,4.313,18.006,13.19c0,6.668-5.004,11.479-14.875,14.296
		c-5.287,1.527-11.369,2.356-18.073,2.466c-7.33,0-25.307-2.869-25.307-2.869l4.863,16.793c0,0,8.956-0.215,19.706-0.215
		c12.306,0.621,20.745,2.114,25.087,4.439c6.863,3.679,12.245,8.04,16.002,12.973c-0.084,0.058,4.141,4.419,4.059,4.479h14.851
		c-0.559-1.828-3.313-5.477-4.466-7.119c-4.971-7-15.621-14.271-31.665-21.628c7.026-1.715,12.026-5.317,14.999-10.738
		c-0.102,0.595,3.24-3.94,3.24-14.584c0-7.903-3.524-14.207-10.469-18.731c-2.33-1.553-4.849-2.798-7.531-3.746
		c1.859-1.174,3.529-2.695,5.003-4.565c3.575-4.52,5.386-10.213,5.386-16.92c0-2.99-0.788-6.484-2.339-10.396h4.173h7.176h14.764
		c-3.219,4.82-4.85,10.129-4.85,15.793c0,4.1,2.399,10.386,7.131,18.682c4.649,8.155,7.006,14.436,7.006,18.667
		c0,3.17-13.649,26.181-15.688,28.896l10.796,13.673c0.728-0.934,13.774-34.215,13.774-41.918c0-4.91-2.291-11.946-6.811-20.915
		c-4.449-8.834-6.705-14.316-6.705-16.3c0-6.979,3.826-12.554,11.373-16.578h10.842v-2.032V2.557V0.524H347.39z M188.131,74.826
		c-3.358-2.184-7.746-4.074-13.059-5.62c-2.166-0.617-4.796-0.93-7.821-0.93c-1.552,0-3.236,0.082-5.026,0.246
		c11.491-7.623,20.196-12.641,25.906-14.93V74.826z M192.84,31.237c-2.801,1.988-5.635,2.997-8.422,2.997
		c-12.665,0-21.173-6.89-25.3-20.479h26.232c8.249,0,12.259,3.426,12.259,10.472C197.61,26.718,196.008,29.077,192.84,31.237z
		 M325.351,31.237c-2.802,1.988-5.636,2.997-8.422,2.997c-12.664,0-21.174-6.89-25.301-20.479h26.23
		c8.248,0,12.261,3.426,12.261,10.472C330.12,26.718,328.517,29.077,325.351,31.237z"/>
	<g>
		<path fill="#FFFFFF" d="M533.473,73.693c-2.591,0-4.815,0.907-6.681,2.719c-1.864,1.813-2.797,4.014-2.797,6.604
			s0.933,4.791,2.797,6.603c1.864,1.813,4.09,2.719,6.681,2.719c2.691,0,4.943-0.878,6.758-2.641c1.812-1.76,2.72-3.986,2.72-6.681
			c0-2.692-0.908-4.918-2.72-6.681C538.417,74.576,536.165,73.693,533.473,73.693z"/>
		<g>
			<path fill="#FFFFFF" d="M539.087,21.302c4.453,3.304,9.632,8.878,15.536,16.722c-4.146,2.272-9.165,5.215-15.07,8.826
				l-15.224,9.289c19.676,0,35.627,5.853,47.849,17.555V9.689h-51.421C523.865,10.724,529.973,14.592,539.087,21.302z"/>
			<path fill="#FFFFFF" d="M577.615,9.689h16.933V0.524h-89.633h-2.954H389.038v9.165h37.269
				c-9.527,5.986-14.293,14.038-14.293,24.149c0,5.574,1.813,10.243,5.439,14.012c3.624,3.767,8.232,5.647,13.824,5.647
				c9.012,0,15.69-3.935,20.043-11.808c0.619,0.623,0.93,2.798,0.93,6.524c0,4.248-1.864,8.443-5.593,12.584
				c-4.765,5.282-10.873,7.925-18.33,7.925c-6.01,0-11.704-1.502-17.089-4.508c-4.973-2.796-8.986-6.808-12.039-12.039
				c-3.058-5.229-4.583-10.742-4.583-16.545c0-1.715,0.197-3.079,0.592-4.105l-1.304-15.833c-0.845,0.613-1.62,1.427-2.317,2.463
				c-1.708,2.54-2.564,5.204-2.564,8c0,5.387,0.313,9.531,0.935,12.429c0.517,2.485,1.81,6.423,3.882,11.808
				c7.354,19.162,18.799,28.738,34.334,28.738c8.49,0,15.379-3.313,20.66-9.941c4.869-6.109,7.303-13.516,7.303-22.216
				c0-3.52-0.569-6.99-1.71-10.408c-1.656-4.866-3.884-7.092-6.679-6.681c-0.621,0.105-2.617,2.307-5.982,6.604
				c-3.364,4.298-7.067,6.447-11.105,6.447c-10.358,0-15.535-3.039-15.535-9.123c0-8.862,9.112-16.905,27.34-24.123h8.392
				c2.276,6.928,6.213,12.664,11.807,17.212c5.593,4.549,11.962,7.03,19.107,7.442c-6.423,9.097-9.633,17.778-9.633,26.05
				c0,13.329,2.417,22.548,7.235,27.672l2.536-10.492c-0.047,0.056-0.092,0.104-0.141,0.159c-3.005-4.867-4.506-10.305-4.506-16.313
				c0-6.938,3.73-15.534,11.187-25.788c4.661-1.654,6.991-3.885,6.991-6.68c0-3.521-1.709-5.282-5.126-5.282
				c-1.241,0-3.083,0.389-5.518,1.165c-2.434,0.777-4.271,1.165-5.513,1.165c-12.018,0-19.94-5.438-23.771-16.312h46.448h2.954
				h6.677c-4.248,1.954,21.852,17.088,24.235,18.642c2.797,2.486,4.71,4.454,5.748,5.903c-11.808,6.938-20.662,12.066-26.566,15.38
				c-4.868,2.797-7.3,5.593-7.3,8.39c0,0.621,0.155,1.295,0.465,2.021c1.555,2.796,5.023,4.192,10.409,4.192
				c7.974,0,15.947,0.83,23.925,2.485c10.874,2.279,23.436,8.203,27.659,18.659h7.438C577.606,85.15,577.615,9.689,577.615,9.689z
				 M572.178,73.693c-12.222-11.702-28.173-17.555-47.849-17.555l15.224-9.289c5.905-3.611,10.926-6.554,15.07-8.826
				c-5.904-7.844-11.083-13.418-15.536-16.722c-9.114-6.711-15.223-10.578-18.33-11.613h51.421V73.693z"/>
		</g>
	</g>
</g>
<g>
	<path fill="none" d="M185.351,227.152h-26.232c4.126,13.59,12.635,20.479,25.3,20.479c2.788,0,5.622-1.009,8.422-2.997
		c3.168-2.159,4.77-4.52,4.77-7.011C197.61,230.577,193.599,227.152,185.351,227.152z"/>
	<path fill="none" d="M167.251,281.673c3.024,0,5.655,0.313,7.821,0.931c5.313,1.546,9.701,3.437,13.059,5.62V266.99
		c-5.71,2.289-14.415,7.306-25.906,14.929C164.015,281.755,165.7,281.673,167.251,281.673z"/>
	<path fill="none" d="M539.073,236.732c4.451,3.303,9.631,8.876,15.535,16.722c-4.144,2.271-9.166,5.214-15.068,8.825l-15.224,9.289
		c19.675,0,35.624,5.853,47.846,17.554V225.12h-51.419C523.846,226.153,529.958,230.022,539.073,236.732z"/>
	<path fill="#273748" d="M347.39,213.921h-7.176h-90.538h-7.019h-11.395l-8.116,0.212v12.907l-8.266-11.703l-1.013-1.416h-6.319
		h-97.402v13.231h37.708c-0.82,9.183-3.899,15.499-9.166,18.813c-13.89,5.405-18.079-13.021-18.079-13.021s-3.784,3.953-3.784,8.941
		c0,4.667,1.399,8.725,4.477,12.064c3.084,3.352,7.018,5.05,11.693,5.05c11.129,0,18.49-7.521,21.897-22.354
		c5.089,11.786,11.556,19.476,19.294,23.022c-3.823,2.242-7.844,4.568-12.067,6.978c-15.74,8.872-23.392,15.87-23.392,21.39
		c0,4.957,3.507,7.472,10.423,7.472c1.174,0,2.304-0.107,3.356-0.32c7.079-1.438,13.232-2.467,18.217-1.854
		c9.972,1.223,14.611,7.478,17.405,16.098h9.013c0.033-5.047,0.181-10.729,0.181-18.813v-32.909
		c1.137-0.928,2.192-2.009,3.161-3.238c3.573-4.519,5.385-10.213,5.385-16.92c0-2.989-0.787-6.483-2.34-10.396h4.02v0.001
		l0.712-0.001h3.564l11.322,16.766v65.512h11.931v-82.276h7.579h7.019h30.689c-0.82,9.183-3.9,15.499-9.166,18.813
		c-13.571,5.166-18.079-13.021-18.079-13.021s-3.679,5.521-3.784,8.941c-0.106,4.666,1.399,8.725,4.477,12.064
		c3.084,3.352,7.018,5.05,11.693,5.05c11.129,0,18.491-7.521,21.897-22.354c4.339,10.047,9.682,17.105,15.957,21.176
		c-3.637,0.734-6.92,1.856-9.803,3.379c-7.075,3.698-10.716,9.433-10.822,17.035c-0.104,4.269,1.253,7.761,4.035,10.383
		c2.772,2.612,6.333,3.936,10.581,3.936c3.602,0,6.877-0.969,9.736-2.872c3.343-2.153,5.036-5.062,5.036-8.638
		c0-3.293-0.856-6.392-2.556-9.222c3.469-1.19,6.828-1.793,9.998-1.793c12.117,0,18.006,4.313,18.006,13.189
		c0,6.668-5.004,11.479-14.875,14.297c-5.287,1.526-11.369,2.355-18.073,2.466c-7.33,0-25.307-2.869-25.307-2.869l4.863,16.793
		c0,0,8.956-0.215,19.706-0.215c12.306,0.62,20.745,2.113,25.087,4.438c6.863,3.679,12.245,8.04,16.002,12.973
		c-0.084,0.058,4.141,4.419,4.059,4.479h14.851c-0.559-1.828-3.313-5.477-4.466-7.119c-4.971-7-15.621-14.271-31.665-21.628
		c7.026-1.715,12.026-5.316,14.999-10.738c-0.102,0.596,3.24-3.939,3.24-14.584c0-7.902-3.524-14.206-10.469-18.73
		c-2.33-1.553-4.849-2.798-7.531-3.747c1.859-1.173,3.529-2.695,5.003-4.565c3.575-4.519,5.386-10.213,5.386-16.92
		c0-2.989-0.788-6.483-2.339-10.396h4.173h7.176h14.764c-3.219,4.82-4.85,10.129-4.85,15.793c0,4.099,2.399,10.385,7.131,18.681
		c4.649,8.156,7.006,14.437,7.006,18.667c0,3.17-13.649,26.181-15.688,28.897l10.796,13.673
		c0.728-0.935,13.774-34.215,13.774-41.918c0-4.911-2.291-11.947-6.811-20.915c-4.449-8.834-6.705-14.317-6.705-16.3
		c0-6.979,3.826-12.555,11.373-16.578h10.842v-2.032v-9.166v-2.033H347.39V213.921z M188.131,288.223
		c-3.358-2.185-7.746-4.074-13.059-5.62c-2.166-0.617-4.796-0.931-7.821-0.931c-1.552,0-3.236,0.082-5.026,0.246
		c11.491-7.623,20.196-12.64,25.906-14.929V288.223z M192.84,244.634c-2.801,1.988-5.635,2.997-8.422,2.997
		c-12.665,0-21.173-6.889-25.3-20.479h26.232c8.249,0,12.259,3.425,12.259,10.471C197.61,240.114,196.008,242.474,192.84,244.634z
		 M325.351,244.634c-2.802,1.988-5.636,2.997-8.422,2.997c-12.664,0-21.174-6.889-25.301-20.479h26.23
		c8.248,0,12.261,3.425,12.261,10.471C330.12,240.114,328.517,242.474,325.351,244.634z"/>
	<g>
		<path fill="#22B573" d="M533.473,287.09c-2.591,0-4.815,0.907-6.681,2.72c-1.864,1.813-2.797,4.014-2.797,6.603
			c0,2.59,0.933,4.791,2.797,6.604s4.09,2.719,6.681,2.719c2.691,0,4.943-0.878,6.758-2.642c1.812-1.76,2.72-3.985,2.72-6.681
			c0-2.691-0.908-4.918-2.72-6.68C538.417,287.973,536.165,287.09,533.473,287.09z"/>
		<g>
			<path fill="none" d="M539.087,234.699c4.453,3.303,9.632,8.877,15.536,16.721c-4.146,2.273-9.165,5.215-15.07,8.826
				l-15.224,9.289c19.676,0,35.627,5.854,47.849,17.555v-64.005h-51.421C523.865,224.12,529.973,227.988,539.087,234.699z"/>
			<path fill="#22B573" d="M577.615,223.085h16.933v-9.164h-89.633h-2.954H389.038v9.164h37.269
				c-9.527,5.987-14.293,14.038-14.293,24.15c0,5.574,1.813,10.243,5.439,14.011c3.624,3.768,8.232,5.648,13.824,5.648
				c9.012,0,15.69-3.936,20.043-11.809c0.619,0.623,0.93,2.798,0.93,6.525c0,4.248-1.864,8.443-5.593,12.584
				c-4.765,5.282-10.873,7.924-18.33,7.924c-6.01,0-11.704-1.502-17.089-4.507c-4.973-2.796-8.986-6.808-12.039-12.039
				c-3.058-5.229-4.583-10.743-4.583-16.545c0-1.715,0.197-3.079,0.592-4.106l-1.304-15.833c-0.845,0.613-1.62,1.428-2.317,2.463
				c-1.708,2.54-2.564,5.204-2.564,8c0,5.388,0.313,9.531,0.935,12.43c0.517,2.484,1.81,6.423,3.882,11.807
				c7.354,19.162,18.799,28.739,34.334,28.739c8.49,0,15.379-3.313,20.66-9.942c4.869-6.108,7.303-13.515,7.303-22.216
				c0-3.519-0.569-6.99-1.71-10.408c-1.656-4.865-3.884-7.092-6.679-6.68c-0.621,0.105-2.617,2.306-5.982,6.603
				c-3.364,4.299-7.067,6.447-11.105,6.447c-10.358,0-15.535-3.039-15.535-9.123c0-8.861,9.112-16.904,27.34-24.123h8.392
				c2.276,6.93,6.213,12.664,11.807,17.213c5.593,4.55,11.962,7.03,19.107,7.443c-6.423,9.096-9.633,17.778-9.633,26.049
				c0,13.329,2.417,22.548,7.235,27.672l2.536-10.491c-0.047,0.056-0.092,0.104-0.141,0.158c-3.005-4.866-4.506-10.304-4.506-16.312
				c0-6.938,3.73-15.534,11.187-25.788c4.661-1.655,6.991-3.885,6.991-6.68c0-3.521-1.709-5.282-5.126-5.282
				c-1.241,0-3.083,0.388-5.518,1.165c-2.434,0.776-4.271,1.165-5.513,1.165c-12.018,0-19.94-5.438-23.771-16.313h46.448h2.954
				h6.677c-4.248,1.955,21.852,17.089,24.235,18.644c2.797,2.485,4.71,4.454,5.748,5.902c-11.808,6.938-20.662,12.067-26.566,15.38
				c-4.868,2.798-7.3,5.594-7.3,8.391c0,0.621,0.155,1.295,0.465,2.02c1.555,2.796,5.023,4.193,10.409,4.193
				c7.974,0,15.947,0.83,23.925,2.485c10.874,2.278,23.436,8.202,27.659,18.658h7.438
				C577.606,298.547,577.615,223.085,577.615,223.085z M572.178,287.09c-12.222-11.701-28.173-17.555-47.849-17.555l15.224-9.289
				c5.905-3.611,10.926-6.553,15.07-8.826c-5.904-7.844-11.083-13.418-15.536-16.721c-9.114-6.711-15.223-10.579-18.33-11.614
				h51.421V287.09z"/>
		</g>
	</g>
</g>
</svg>
